/* XPM */
static char * openeducationdisc_xpm[] = {
"48 48 66 1",
" 	c None",
".	c #4D4B84",
"+	c #514F86",
"@	c #4E4C84",
"#	c #545288",
"$	c #514F87",
"%	c #4E4C85",
"&	c #504E86",
"*	c #9D9CB4",
"=	c #676594",
"-	c #C1C1CA",
";	c #8A89A9",
">	c #D2D2D4",
",	c #D7D7D7",
"'	c #5F5D8F",
")	c #B5B4C3",
"!	c #78779E",
"~	c #D0D0D3",
"{	c #4F4D85",
"]	c #A6A6BA",
"^	c #5E5D8E",
"/	c #D4D4D5",
"(	c #4F4E86",
"_	c #9191AD",
":	c #656493",
"<	c #BDBDC7",
"[	c #8686A6",
"}	c #CECED2",
"|	c #57558A",
"1	c #A4A4B8",
"2	c #6E6D98",
"3	c #C8C8CE",
"4	c #9B9AB3",
"5	c #59578B",
"6	c #7B7AA0",
"7	c #59588B",
"8	c #B4B4C2",
"9	c #CACACF",
"0	c #525187",
"a	c #9998B2",
"b	c #D5D5D6",
"c	c #72719A",
"d	c #C7C7CD",
"e	c #525087",
"f	c #A1A0B6",
"g	c #5E5C8E",
"h	c #CCCCD1",
"i	c #9493AF",
"j	c #B6B5C3",
"k	c #74739C",
"l	c #D6D6D7",
"m	c #B5B4C2",
"n	c #7C7BA1",
"o	c #D3D3D5",
"p	c #626191",
"q	c #9392AE",
"r	c #615F90",
"s	c #BEBEC8",
"t	c #8482A5",
"u	c #CFCFD2",
"v	c #58568B",
"w	c #A7A6BA",
"x	c #D7D6D7",
"y	c #716F99",
"z	c #CDCDD1",
"A	c #908FAC",
"                     ......                     ",
"                ................                ",
"              ...................+              ",
"            ......................@#            ",
"          ..........................$%          ",
"         ..............................         ",
"        ................................        ",
"       ..................................       ",
"      ....................................      ",
"     ......................................     ",
"    ........................................    ",
"    ........................................    ",
"   ........................................&*   ",
"   ........................................=-   ",
"  ........................................%;>,  ",
"  ........................................'),,  ",
" ....................@@..@@...............!~,,, ",
" ...................%      {..............],,,, ",
" .................@          ............^/,,,, ",
" .................            ..........(_,,,,, ",
".................{            %.........:<,,,,,,",
".................              @.......&[},,,,,,",
"................@              @.......|1,,,,,,,",
".................              %.......23,,,,,,,",
".................              %......{4,,,,,,,,",
"................%              @......53,,,,,,,,",
"................@              .......6,,,,,,,,,",
".................{            %......78,,,,,,,,,",
" .................            ......%69,,,,,,,,,",
" .................%          @......0ab,,,,,,,, ",
" ...................       {........cd,,,,,,,,, ",
" .....................@%%%.........efb,,,,,,,,, ",
"  .................................gh,,,,,,,,,  ",
"  ................................{i,,,,,,,,,,  ",
"   ...............................|j,,,,,,,,,,  ",
"   ...............................k3,,,,,,,,,   ",
"    .............................+al,,,,,,,,    ",
"    .............................gm,,,,,,,,,    ",
"     ............................no,,,,,,,,     ",
"      ..........................%8,,,,,,,,      ",
"       .........................p/,,,,,,,       ",
"        ........................q,,,,,,,        ",
"         ......................rs,,,,,,         ",
"          ....................@tu,,,,,          ",
"            ..................vwx,,,            ",
"              ................yz,,              ",
"                ..............A,                ",
"                    ........                    "};
