/* XPM */
static char * opendisc_xpm[] = {
"48 48 71 1",
" 	c None",
".	c #458B4A",
"+	c #488D4F",
"@	c #458B4B",
"#	c #4C8F51",
"$	c #498E4F",
"%	c #468C4B",
"&	c #458C4A",
"*	c #488D4D",
"=	c #9AB79C",
"-	c #609A65",
";	c #C0CBC1",
">	c #468C4C",
",	c #85AD89",
"'	c #D2D4D2",
")	c #D7D7D7",
"!	c #57955C",
"~	c #B3C4B4",
"{	c #458C4B",
"]	c #72A377",
"^	c #D0D3D0",
"/	c #478C4C",
"(	c #A4BDA5",
"_	c #468B4B",
":	c #D4D5D4",
"<	c #8DB090",
"[	c #5F9863",
"}	c #BBC8BC",
"|	c #82AB85",
"1	c #CED2CE",
"2	c #4F9054",
"3	c #A2BBA4",
"4	c #679D6B",
"5	c #C7CFC8",
"6	c #97B69A",
"7	c #519256",
"8	c #C8CFC8",
"9	c #75A479",
"0	c #468D4C",
"a	c #529257",
"b	c #B3C3B4",
"c	c #76A479",
"d	c #CAD0CA",
"e	c #4B8E50",
"f	c #95B598",
"g	c #D5D6D5",
"h	c #6CA070",
"i	c #C6CEC7",
"j	c #4A8E4F",
"k	c #9DBAA0",
"l	c #CCD1CC",
"m	c #91B294",
"n	c #B4C4B5",
"o	c #6FA172",
"p	c #498D4E",
"q	c #D6D7D6",
"r	c #B2C4B4",
"s	c #77A67B",
"t	c #B2C3B3",
"u	c #5B9760",
"v	c #8FB192",
"w	c #5A965E",
"x	c #BDC9BE",
"y	c #7EA982",
"z	c #CED3CF",
"A	c #509155",
"B	c #A4BDA6",
"C	c #D6D7D7",
"D	c #6A9E6F",
"E	c #CCD2CD",
"F	c #8CB08E",
"                     ......                     ",
"                ................                ",
"              ...................+              ",
"            ......................@#            ",
"          ..........................$%          ",
"         ............................&.         ",
"        ................................        ",
"       ..................................       ",
"      ....................................      ",
"     ......................................     ",
"    ........................................    ",
"    ........................................    ",
"   ........................................*=   ",
"   ........................................-;   ",
"  ........................................>,')  ",
"  ........................................!~))  ",
" ....................&{&@{&...............]^))) ",
" ..................&%      /@.............()))) ",
" ................._          &...........!:)))) ",
" ................&            &........./<))))) ",
".................>            &.........[}))))))",
"................&              &.......*|1))))))",
"................@              @.......23)))))))",
".................              %.......45)))))))",
".................              %....../6))))))))",
"................%              @......78))))))))",
"................&              &......9)))))))))",
".................0            &......ab)))))))))",
" ................&            &.....%cd)))))))))",
" .................%          {......efg)))))))) ",
" ..................&       0&.......hi))))))))) ",
" ....................&@%%&&........jkg))))))))) ",
"  .................................!l)))))))))  ",
"  ................................/m))))))))))  ",
"   ...............................2n))))))))))  ",
"   ...............................o5)))))))))   ",
"    .............................pfq))))))))    ",
"    .............................!r)))))))))    ",
"     ............................s:))))))))     ",
"      ..........................%t))))))))      ",
"       .........................u:)))))))       ",
"        ........................v)))))))        ",
"         ......................wx))))))         ",
"          ....................%yz)))))          ",
"            ..................ABC)))            ",
"              ................DE))              ",
"                ..............F)                ",
"                    ........                    "};
